<svg xmlns="http://www.w3.org/2000/svg" width="1200" height="620" viewBox="0 0 1200 620">
  <rect x="0" y="0" width="1200" height="620" fill="#f9fafb"/>
  <g fill="#ffd44d" stroke="#303030" stroke-width="2">
    <ellipse cx="342.33" cy="280.49" rx="213.01" ry="151.17"/>
    <circle cx="507.24" cy="280.49" r="65.28"/>
    <polygon points="575.95,280.49 520.98,261.25 520.98,299.73"/>
    <polygon points="129.33,280.49 67.48,235.83 67.48,325.15"/>
    <polygon points="466.01,211.78 919.51,112.15 699.63,218.65"/>
    <polygon points="466.01,349.20 919.51,448.83 699.63,342.33"/>
    <polygon points="287.36,201.47 108.71,129.33 170.55,228.96"/>
    <polygon points="287.36,359.51 108.71,431.66 170.55,332.02"/>
    <circle cx="905.77" cy="136.20" r="111.52"/>
    <circle cx="905.77" cy="424.79" r="111.52"/>
  </g>
  <g stroke-width="3" stroke-linecap="round">
    <line x1="567.95" y1="272.49" x2="583.95" y2="288.49" stroke="#d62828"/>
    <line x1="567.95" y1="288.49" x2="583.95" y2="272.49" stroke="#d62828"/>
  </g>
  <circle cx="575.95" cy="280.49" r="5" fill="#006d77"/>
  <text x="40" y="34" font-family="Arial, sans-serif" font-size="22" fill="#111">
    Tortuga 2D - r=1.623037, A=44.0114, x_bar=0.000031, y_bar=0.000007
  </text>
  <text x="40" y="62" font-family="Arial, sans-serif" font-size="17" fill="#333">
    X roja: hocico / punto de apoyo | Punto azul: centro de masa
  </text>
</svg>
