<svg xmlns="http://www.w3.org/2000/svg" width="1380" height="760" viewBox="0 0 1380 760">
  <rect x="0" y="0" width="1380" height="760" fill="#f8fafc"/>
  <rect x="24" y="24" width="830" height="712" rx="20" fill="#ffffff" stroke="#dbe4ee" stroke-width="2"/>
  <text x="48" y="58" font-family="Arial, sans-serif" font-size="28" font-weight="700" fill="#111827">
    Tortuga 2D - referencias de centro de masa y apoyo universal
  </text>
  <text x="48" y="90" font-family="Arial, sans-serif" font-size="16" fill="#475569">
    x_bar=0.000031, y_bar=0.000007, distancia al eje=0.000032 (0.000 mm a escala final)
  </text>

  <g fill="#fde68a" stroke="#374151" stroke-width="2.2">
    <ellipse cx="248.83" cy="207.75" rx="141.50" ry="100.42"/>
    <circle cx="358.38" cy="207.75" r="43.36"/>
    <polygon points="404.02,207.75 367.51,194.97 367.51,220.53"/>
    <polygon points="107.34,207.75 66.26,178.09 66.26,237.42"/>
    <polygon points="330.99,162.11 632.25,95.93 486.18,166.67"/>
    <polygon points="330.99,253.40 632.25,319.58 486.18,248.83"/>
    <polygon points="212.32,155.26 93.64,107.34 134.72,173.52"/>
    <polygon points="212.32,260.25 93.64,308.17 134.72,241.99"/>
    <circle cx="623.12" cy="111.90" r="74.08"/>
    <circle cx="623.12" cy="303.61" r="74.08"/>
  </g>

  <circle cx="404.02" cy="207.75" r="25.10" fill="rgba(16,185,129,0.10)" stroke="#10b981" stroke-width="3" stroke-dasharray="10 8"/>
  <circle cx="404.02" cy="207.75" r="10.95" fill="rgba(245,158,11,0.08)" stroke="#f59e0b" stroke-width="3" stroke-dasharray="10 8"/>

  <line x1="404.02" y1="207.75" x2="404.03" y2="207.75" stroke="#0f766e" stroke-width="3"/>

  <g stroke-width="3" stroke-linecap="round">
    <line x1="394.02" y1="197.75" x2="414.02" y2="217.75" stroke="#dc2626"/>
    <line x1="394.02" y1="217.75" x2="414.02" y2="197.75" stroke="#dc2626"/>
  </g>

  <circle cx="404.03" cy="207.75" r="6" fill="#0f766e"/>
  <text x="420.02" y="195.75" font-family="Arial, sans-serif" font-size="16" fill="#991b1b">
    Eje comun de apoyo
  </text>
  <text x="418.03" y="195.75" font-family="Arial, sans-serif" font-size="16" fill="#115e59">
    Centro de masa 2D
  </text>
  <text x="443.13" y="211.75" font-family="Arial, sans-serif" font-size="15" fill="#047857">
    anillo estable mesa / dedo
  </text>
  <text x="428.98" y="235.75" font-family="Arial, sans-serif" font-size="15" fill="#b45309">
    apertura para lapiz
  </text>

  <text x="48" y="686" font-family="Arial, sans-serif" font-size="16" fill="#334155">
    Margen radial de estabilidad plana: 6.050 mm.
  </text>
  <text x="48" y="714" font-family="Arial, sans-serif" font-size="16" fill="#334155">
    La proyeccion XY del CM queda dentro del anillo de apoyo universal.
  </text>


  <g>
    <rect x="930.00" y="110.00" width="420.00" height="520.00" rx="18" fill="#ffffff" stroke="#dbe4ee" stroke-width="2"/>
    <text x="954.00" y="144.00" font-family="Arial, sans-serif" font-size="24" font-weight="700" fill="#111827">
      Corte lateral del apoyo universal
    </text>
    <text x="954.00" y="176.00" font-family="Arial, sans-serif" font-size="15" fill="#475569">
      Mesa / dedo ancho: apoyo en anillo | Lapiz: apoyo en cavidad esferica
    </text>

    <line x1="962.00" y1="541.60" x2="1318.00" y2="541.60" stroke="#334155" stroke-width="3"/>
    <rect x="1032.90" y="523.60" width="231.00" height="18" fill="#d1fae5" stroke="#059669" stroke-width="2"/>
    <rect x="1098.00" y="519.60" width="100.80" height="22" fill="#ffffff"/>

    <circle cx="1148.40" cy="356.80" r="184.80" fill="none" stroke="#f59e0b" stroke-width="3" stroke-dasharray="8 8"/>
    <circle cx="1148.40" cy="356.80" r="5" fill="#b45309"/>
    <text x="1160.40" y="346.80" font-family="Arial, sans-serif" font-size="16" fill="#92400e">
      Centro de curvatura
    </text>

    <circle cx="1148.40" cy="448.54" r="7" fill="#0f766e"/>
    <text x="1160.40" y="438.54" font-family="Arial, sans-serif" font-size="16" fill="#115e59">
      CM 3D
    </text>

    <line x1="1023.40" y1="575.60" x2="1273.40" y2="575.60" stroke="#64748b" stroke-width="2"/>
    <text x="1076.40" y="601.60" font-family="Arial, sans-serif" font-size="16" fill="#475569">
      Plano de apoyo
    </text>

    <line x1="998.40" y1="448.54" x2="998.40" y2="541.60" stroke="#0f766e" stroke-width="2"/>
    <line x1="990.40" y1="448.54" x2="1006.40" y2="448.54" stroke="#0f766e" stroke-width="2"/>
    <line x1="990.40" y1="541.60" x2="1006.40" y2="541.60" stroke="#0f766e" stroke-width="2"/>
    <text x="913.40" y="495.07" font-family="Arial, sans-serif" font-size="15" fill="#115e59">
      h_CM
    </text>

    <line x1="1298.40" y1="356.80" x2="1298.40" y2="448.54" stroke="#b45309" stroke-width="2"/>
    <line x1="1290.40" y1="356.80" x2="1306.40" y2="356.80" stroke="#b45309" stroke-width="2"/>
    <line x1="1290.40" y1="448.54" x2="1306.40" y2="448.54" stroke="#b45309" stroke-width="2"/>
    <text x="1310.40" y="402.67" font-family="Arial, sans-serif" font-size="15" fill="#92400e">
      margen de estabilidad puntual
    </text>

    <text x="954.00" y="542.00" font-family="Arial, sans-serif" font-size="16" fill="#334155">
      Si el CM queda por debajo del centro de curvatura, la tortuga se autocentra
      sobre punta de lapiz.
    </text>
    <text x="954.00" y="574.00" font-family="Arial, sans-serif" font-size="16" fill="#334155">
      Si la proyeccion del CM queda dentro del anillo, tambien se sostiene sobre mesa
      o dedo ancho.
    </text>
  </g>

</svg>
